<svg width="966" height="691" viewBox="0 0 966 691" fill="none" xmlns="http://www.w3.org/2000/svg">
<g id="undraw_online_page_cq94 1" clip-path="url(#clip0)">
<path id="Vector" d="M965.353 160.003H143.353V604.003H965.353V160.003Z" fill="#4D4D4D"/>
<path id="Vector_2" d="M965.353 124.003H143.353V165.003H965.353V124.003Z" fill="#4D4D4D"/>
<path id="Vector_3" d="M163.353 149.003C167.219 149.003 170.353 145.869 170.353 142.003C170.353 138.137 167.219 135.003 163.353 135.003C159.487 135.003 156.353 138.137 156.353 142.003C156.353 145.869 159.487 149.003 163.353 149.003Z" fill="black"/>
<path id="Vector_4" d="M183.353 149.003C187.219 149.003 190.353 145.869 190.353 142.003C190.353 138.137 187.219 135.003 183.353 135.003C179.487 135.003 176.353 138.137 176.353 142.003C176.353 145.869 179.487 149.003 183.353 149.003Z" fill="black"/>
<path id="Vector_5" d="M203.353 149.003C207.219 149.003 210.353 145.869 210.353 142.003C210.353 138.137 207.219 135.003 203.353 135.003C199.487 135.003 196.353 138.137 196.353 142.003C196.353 145.869 199.487 149.003 203.353 149.003Z" fill="black"/>
<path id="Vector_6" opacity="0.1" d="M965.353 160.003H143.353V165.003H965.353V160.003Z" fill="black"/>
<path id="Vector_7" opacity="0.3" d="M352.853 230.503H190.853V403.503H352.853V230.503Z" fill="black"/>
<path id="Vector_8" d="M363.853 218.503H201.853V391.503H363.853V218.503Z" fill="black"/>
<g id="Image">
<path id="Vector_9" opacity="0.3" d="M909.396 227.728H784.853V360.728H909.396V227.728Z" fill="black"/>
<path id="Vector_10" d="M917.853 218.503H793.309V351.503H917.853V218.503Z" fill="black"/>
</g>
<path id="Vector_11" opacity="0.3" d="M909.396 412.503H784.853V545.503H909.396V412.503Z" fill="black"/>
<path id="Vector_12" d="M917.853 403.277H793.309V536.277H917.853V403.277Z" fill="black"/>
<g id="Paragraph">
<path id="Vector_13" d="M729.853 218.503H420.853V230.503H729.853V218.503Z" fill="black"/>
<path id="Vector_14" d="M729.853 253.503H420.853V265.503H729.853V253.503Z" fill="black"/>
<path id="Vector_15" d="M729.853 288.503H420.853V300.503H729.853V288.503Z" fill="black"/>
<path id="Vector_16" d="M729.853 323.503H420.853V335.503H729.853V323.503Z" fill="black"/>
</g>
<g id="ParagraphTwo">
<path id="Vector_17" d="M729.853 358.503H420.853V370.503H729.853V358.503Z" fill="black"/>
<path id="Vector_18" d="M729.853 393.503H420.853V405.503H729.853V393.503Z" fill="black"/>
<path id="Vector_19" d="M729.853 428.503H420.853V440.503H729.853V428.503Z" fill="black"/>
<path id="Vector_20" d="M729.853 463.503H420.853V475.503H729.853V463.503Z" fill="black"/>
<path id="Vector_21" d="M729.853 498.503H420.853V510.503H729.853V498.503Z" fill="black"/>
<path id="Vector_22" d="M729.853 533.503H420.853V545.503H729.853V533.503Z" fill="black"/>
</g>
<path id="Vector_23" d="M133.5 392C153.106 392 169 376.33 169 357C169 337.67 153.106 322 133.5 322C113.894 322 98 337.67 98 357C98 376.33 113.894 392 133.5 392Z" fill="#A0616A"/>
<path id="Vector_24" d="M110.803 373C110.803 373 110.804 409.75 104.49 413.833C98.1759 417.917 155 422 155 422V375.042L110.803 373Z" fill="#A0616A"/>
<path id="Vector_25" d="M42 578.241C42 578.241 81.8387 623 90.2258 623C98.6129 623 107 592.483 107 592.483L67.1613 564L42 578.241Z" fill="#A0616A"/>
<path id="Vector_26" d="M104.512 400L98.2195 412.275C98.2195 412.275 31.0976 432.733 29 475.695L85.6342 567.757C85.6342 567.757 89.8293 573.894 87.7317 577.986C85.6342 582.077 83.5366 580.031 85.6342 586.169C87.7317 592.306 87.7317 590.26 87.7317 594.352C87.7317 598.444 81.439 596.398 87.7317 598.444C94.0244 600.489 85.6342 598.444 108.707 604.581C131.78 610.719 201 608.673 201 608.673L188.415 490.016L201 465.466L184.219 416.367C184.219 416.367 173.732 414.321 167.439 418.412C161.146 422.504 152.756 414.321 152.756 414.321C152.756 414.321 142.268 400 104.512 400Z" fill="#A2A2A2"/>
<g id="Arm">
<path id="Vector_27" d="M241 375.437L247.279 332.362C247.279 332.362 251.465 272.878 264.023 287.236C276.581 301.594 268.209 334.413 268.209 334.413C268.209 334.413 274.488 381.591 268.209 387.744C261.93 393.898 241 375.437 241 375.437Z" fill="#A0616A"/>
<path id="Vector_28" d="M174 418.092L184.416 416.052C184.416 416.052 226.078 403.816 228.161 393.618C230.244 383.421 240.66 371.184 240.66 371.184C240.66 371.184 273.989 363.026 271.906 389.539C269.823 416.052 261.491 424.21 257.324 428.289C253.158 432.368 207.33 465 198.997 465C190.665 465 174 418.092 174 418.092Z" fill="#A1A1A1"/>
</g>
<path id="Vector_29" d="M33.2941 467L29.1145 475.211L27.0248 549.105C27.0248 549.105 14.4861 557.316 20.7554 561.421C27.0248 565.526 41.6532 584 45.8328 584C50.0124 584 73 573.737 73 569.632C73 565.526 68.8204 528.579 68.8204 528.579L33.2941 467Z" fill="#A1A1A1"/>
<path id="Vector_30" d="M138.42 395.098C139.019 395.061 139.604 394.905 140.138 394.638C140.998 393.968 141.569 393.012 141.739 391.957L146.052 377.171C147.688 371.561 150.316 365.008 156.213 363.822C157.449 363.742 158.658 363.431 159.772 362.906C160.418 362.317 160.925 361.6 161.259 360.804C161.592 360.008 161.744 359.152 161.704 358.294L163.552 339.183C164.051 334.016 164.525 328.644 162.663 323.778C159.916 316.6 152.384 311.874 144.6 310.515C136.817 309.156 128.798 310.676 121.222 312.873C109.728 316.205 97.8265 321.941 92.8333 332.499C89.9426 338.612 89.7646 345.581 90.1511 352.293C90.549 359.205 91.5426 366.249 94.8244 372.4C96.6491 375.579 98.7674 378.592 101.153 381.402C104.718 385.866 109.089 394.595 114.988 396.261C121.638 398.139 131.681 395.945 138.42 395.098Z" fill="#2F2E41"/>
</g>
<defs>
<clipPath id="clip0">
<rect width="965.353" height="690.003" fill="white"/>
</clipPath>
</defs>
</svg>
